<svg xmlns="http://www.w3.org/2000/svg" viewBox="0 0 512 512" fill="none">
  <defs>
    <linearGradient id="juice-bg" x1="72" y1="56" x2="448" y2="456" gradientUnits="userSpaceOnUse">
      <stop stop-color="#16181F" />
      <stop offset="1" stop-color="#090B11" />
    </linearGradient>
    <linearGradient id="juice-drop" x1="176" y1="120" x2="364" y2="384" gradientUnits="userSpaceOnUse">
      <stop stop-color="#7C3AED" />
      <stop offset=".55" stop-color="#5B5CF6" />
      <stop offset="1" stop-color="#22D3EE" />
    </linearGradient>
    <linearGradient id="juice-spark" x1="330" y1="126" x2="400" y2="192" gradientUnits="userSpaceOnUse">
      <stop stop-color="#C4B5FD" />
      <stop offset="1" stop-color="#67E8F9" />
    </linearGradient>
    <filter id="juice-glow" x="123" y="85" width="284" height="341" color-interpolation-filters="sRGB" filterUnits="userSpaceOnUse">
      <feFlood flood-opacity="0" result="BackgroundImageFix" />
      <feGaussianBlur in="BackgroundImageFix" stdDeviation="18" />
      <feComposite in2="SourceAlpha" operator="in" result="effect1_backgroundBlur_1_1" />
      <feBlend in="SourceGraphic" in2="effect1_backgroundBlur_1_1" result="shape" />
      <feGaussianBlur result="effect2_foregroundBlur_1_1" stdDeviation="5" />
    </filter>
  </defs>
  <rect width="512" height="512" rx="120" fill="url(#juice-bg)" />
  <rect x="28" y="28" width="456" height="456" rx="92" stroke="rgba(255,255,255,.08)" stroke-width="2" />
  <circle cx="392" cy="126" r="62" fill="#7C3AED" fill-opacity=".16" />
  <circle cx="144" cy="390" r="88" fill="#22D3EE" fill-opacity=".08" />
  <g filter="url(#juice-glow)">
    <path
      d="M260 116c-12 48-44 77-77 116-27 31-44 70-44 112 0 74 60 134 134 134s134-60 134-134c0-42-17-81-44-112-33-39-65-68-77-116-2-8-13-8-15 0Z"
      fill="url(#juice-drop)"
    />
  </g>
  <path
    d="M320 220c0-35-28-63-63-63h-34c-35 0-63 28-63 63 0 31 23 58 53 63v44c0 6 8 9 12 4l36-42h8c35 0 63-28 63-63Z"
    fill="#F8FAFC"
    fill-opacity=".94"
  />
  <path
    d="m227 223 34 34m0-34-34 34"
    stroke="#6D28D9"
    stroke-linecap="round"
    stroke-width="18"
  />
  <path
    d="m366 104 12 28 28 12-28 12-12 28-12-28-28-12 28-12 12-28Z"
    fill="url(#juice-spark)"
  />
</svg>
